# xmcd
#
# Track frame offsets:
#	150
#	16988
#	36063
#	48495
#	61945
#	76871
#	88339
#	100240
#	114631
#	125505
#	136769
#	161255
#
# Disc length: 2432 seconds
#
# Revision: 0
# Processed by: cddbd v1.5PL3 Copyright (c) Steve Scherf et al.
# Submitted via: dBpowerAMP V4.0
#
DISCID=92097e0c
DTITLE=Demonstrators, The - cookin' with roots
DYEAR=1900
DGENRE=Blues
TTITLE0=New Orleans Callin'
TTITLE1=If You Cook The Way You Walk
TTITLE2=Only Dead Presidents Vote
TTITLE3=Blues Refugee
TTITLE4=Blues Mama
TTITLE5=Hostage America
TTITLE6=Nobody Loves Me But MP3.com
TTITLE7=Source Of Light
TTITLE8=Come Back Casey Jones
TTITLE9=Hillibilly Music
TTITLE10=Big and Black and Blue
TTITLE11=DATA
EXTD=
EXTT0=
EXTT1=
EXTT2=
EXTT3=
EXTT4=
EXTT5=
EXTT6=
EXTT7=
EXTT8=
EXTT9=
EXTT10=
EXTT11=
PLAYORDER=
